<svg width="24" height="24" viewBox="0 0 24 24" fill="none" xmlns="http://www.w3.org/2000/svg" id="menu-burger">
<path fill-rule="evenodd" clip-rule="evenodd" d="M21 17C21.5523 17 22 17.6716 22 18.5C22 19.3284 21.5523 20 21 20H3C2.44772 20 2 19.3284 2 18.5C2 17.6716 2.44772 17 3 17H21ZM21 11C21.5523 11 22 11.6716 22 12.5C22 13.3284 21.5523 14 21 14H3C2.44772 14 2 13.3284 2 12.5C2 11.6716 2.44772 11 3 11H21ZM21 5C21.5523 5 22 5.67157 22 6.5C22 7.32843 21.5523 8 21 8H3C2.44772 8 2 7.32843 2 6.5C2 5.67157 2.44772 5 3 5H21Z" fill="#7CF03D"/>
</svg>
