<svg width="28" height="28" viewBox="0 0 28 28" fill="none" xmlns="http://www.w3.org/2000/svg" id="upload-photo">
<path fill-rule="evenodd" clip-rule="evenodd" d="M5 2C3.343 2 2 3.343 2 5V16.586L6.29303 12.293C6.68303 11.902 7.31697 11.902 7.70697 12.293L15.5 20.086L20.293 15.293C20.683 14.902 21.317 14.902 21.707 15.293L26 19.586V5C26 3.343 24.657 2 23 2H5ZM28 5C28 2.239 25.761 0 23 0H5C2.239 0 0 2.239 0 5V23C0 25.761 2.239 28 5 28H23C25.761 28 28 25.761 28 23V5ZM26 22.414L21 17.414L16.914 21.5L21.414 26H23C24.657 26 26 24.657 26 23V22.414ZM18.586 26L7 14.414L2 19.414V23C2 24.657 3.343 26 5 26H18.586ZM20 6C18.895 6 18 6.895 18 8C18 9.105 18.895 10 20 10C21.105 10 22 9.105 22 8C22 6.895 21.105 6 20 6ZM16 8C16 5.791 17.791 4 20 4C22.209 4 24 5.791 24 8C24 10.209 22.209 12 20 12C17.791 12 16 10.209 16 8Z" fill="#7CF03D"/>
</svg>
